<svg width="30" height="30" viewBox="0 0 30 30" fill="none" xmlns="http://www.w3.org/2000/svg">
<g clip-path="url(#clip0)">
<path d="M29.8525 4.79003L25.8966 8.74597L24.0966 6.94597L28.0525 2.94936C28.148 2.8531 28.278 2.79895 28.4136 2.79895C28.5491 2.79895 28.6791 2.8531 28.7746 2.94936L29.8525 4.068C29.9488 4.16347 30.003 4.29344 30.003 4.42902C30.003 4.5646 29.9488 4.69456 29.8525 4.79003Z" fill="white"/>
<path d="M14.7458 0.254395V1.27134H14.2373C13.3948 1.27134 12.7119 1.9543 12.7119 2.79677H11.6949C11.6949 1.9543 11.012 1.27134 10.1695 1.27134H9.66101V0.762869C9.66101 0.482046 9.88866 0.254395 10.1695 0.254395H14.7458Z" fill="white"/>
<path d="M7.68304 8.11544C7.56353 7.87955 7.42042 7.65638 7.25592 7.44934L1.60168 13.0985C1.80896 13.2641 2.03207 13.4089 2.26779 13.5307L7.68304 8.11544Z" fill="white"/>
<path d="M5.8627 6.30029L0.447449 11.7105C0.569879 11.9474 0.714601 12.1722 0.879652 12.3816L6.53389 6.7325C6.32487 6.56677 6.10006 6.42201 5.8627 6.30029Z" fill="white"/>
<path d="M4.79994 5.92393C4.55922 5.8729 4.31381 5.84734 4.06774 5.84766C1.84154 5.89613 0.0484132 7.68926 -5.80086e-05 9.91546C-0.000381215 10.1615 0.0251832 10.4069 0.0762132 10.6477L4.79994 5.92393Z" fill="white"/>
<path d="M3.33051 13.9069C3.57294 13.9579 3.82005 13.9835 4.06779 13.9832C6.29399 13.9347 8.08712 12.1416 8.13559 9.91539C8.13363 9.66776 8.10809 9.42088 8.05932 9.1781L3.33051 13.9069Z" fill="white"/>
<path d="M19.8305 0.762869V1.27134H19.3221C18.4796 1.27134 17.7966 1.9543 17.7966 2.79677H16.7797C16.7797 1.9543 16.0967 1.27134 15.2543 1.27134H14.7458V0.254395H19.3221C19.6029 0.254395 19.8305 0.482046 19.8305 0.762869Z" fill="white"/>
<path d="M20.8474 2.79668V6.60007L18.8135 8.63397V2.79668C18.8135 2.51586 19.0412 2.28821 19.322 2.28821H20.339C20.6198 2.28821 20.8474 2.51586 20.8474 2.79668Z" fill="white"/>
<path d="M20.8474 17.385V29.2376C20.8474 29.5184 20.6198 29.746 20.339 29.746H19.322C19.0412 29.746 18.8135 29.5184 18.8135 29.2376V19.4189L20.8474 17.385Z" fill="white"/>
<path d="M15.7627 2.79668V11.6696L13.7288 13.7035V2.79668C13.7288 2.51586 13.9565 2.28821 14.2373 2.28821H15.2543C15.5351 2.28821 15.7627 2.51586 15.7627 2.79668Z" fill="white"/>
<path d="M15.7627 22.4696V29.2374C15.7627 29.5182 15.5351 29.7459 15.2543 29.7459H14.2373C13.9565 29.7459 13.7288 29.5182 13.7288 29.2374V24.5035L15.7627 22.4696Z" fill="white"/>
<path d="M10.6779 2.79668V16.7391L8.64404 18.773V2.79668C8.64404 2.51586 8.87169 2.28821 9.15252 2.28821H10.1695C10.4503 2.28821 10.6779 2.51586 10.6779 2.79668Z" fill="white"/>
<path d="M10.678 27.5544V29.2375C10.678 29.5183 10.4504 29.746 10.1695 29.746H9.15258C8.97871 29.7446 8.81761 29.6544 8.72546 29.507L10.678 27.5544Z" fill="white"/>
<path d="M25.6373 11.1613L7.20508 29.5935C7.10961 29.6898 6.97964 29.7439 6.84406 29.7439C6.70849 29.7439 6.57852 29.6898 6.48305 29.5935L3.20847 26.3495C3.01132 26.1511 3.01132 25.8308 3.20847 25.6325L21.6814 7.20538C21.8363 7.04883 22.0744 7.00983 22.2712 7.10877L23.3898 7.6681L25.1848 9.46301L25.7441 10.5715C25.8405 10.7704 25.7973 11.0088 25.6373 11.1613Z" fill="white"/>
<path d="M25.6373 11.1613L7.20508 29.5935C7.10961 29.6898 6.97964 29.7439 6.84406 29.7439C6.70849 29.7439 6.57852 29.6898 6.48305 29.5935L3.20847 26.3495C3.01132 26.1511 3.01132 25.8308 3.20847 25.6325L21.6814 7.20538C21.8363 7.04883 22.0744 7.00983 22.2712 7.10877L23.3898 7.6681L25.1848 9.46301L25.7441 10.5715C25.8405 10.7704 25.7973 11.0088 25.6373 11.1613Z" fill="white"/>
</g>
<defs>
<clipPath id="clip0">
<rect width="30" height="30" fill="white"/>
</clipPath>
</defs>
</svg>
