<svg width="20" height="20" viewBox="0 0 20 20" fill="none" xmlns="http://www.w3.org/2000/svg">
<g filter="url(#filter0_d)">
<path d="M18.8958 0H1.10417C0.494167 0 0 0.494167 0 1.10417V18.8967C0 19.5058 0.494167 20 1.10417 20H10.6833V12.255H8.07667V9.23667H10.6833V7.01083C10.6833 4.4275 12.2608 3.02083 14.5658 3.02083C15.67 3.02083 16.6183 3.10333 16.895 3.14V5.84L15.2967 5.84083C14.0433 5.84083 13.8008 6.43667 13.8008 7.31V9.2375H16.79L16.4008 12.2558H13.8008V20H18.8975C19.5058 20 20 19.5058 20 18.8958V1.10417C20 0.494167 19.5058 0 18.8958 0V0Z" fill="white"/>
<path d="M1.10417 0.5H18.8958C19.2297 0.5 19.5 0.770309 19.5 1.10417V18.8958C19.5 19.2302 19.2292 19.5 18.8975 19.5H14.3008V12.7558H16.4008H16.8405L16.8967 12.3198L17.2859 9.30144L17.3586 8.7375H16.79H14.3008V7.31C14.3008 6.89474 14.3647 6.68459 14.4613 6.56992C14.5415 6.47454 14.7367 6.34083 15.2967 6.34083H15.2969L16.8953 6.34L17.395 6.33974V5.84V3.14V2.70189L16.9607 2.64433C16.6594 2.60441 15.6889 2.52083 14.5658 2.52083C13.3119 2.52083 12.2043 2.90515 11.4087 3.69147C10.6116 4.47932 10.1833 5.61582 10.1833 7.01083V8.73667H8.07667H7.57667V9.23667V12.255V12.755H8.07667H10.1833V19.5H1.10417C0.770063 19.5 0.5 19.2294 0.5 18.8967V1.10417C0.5 0.770309 0.770309 0.5 1.10417 0.5Z"/>
</g>
<defs>
<filter id="filter0_d" x="-4" y="0" width="28" height="28" filterUnits="userSpaceOnUse" color-interpolation-filters="sRGB">
<feFlood flood-opacity="0" result="BackgroundImageFix"/>
<feColorMatrix in="SourceAlpha" type="matrix" values="0 0 0 0 0 0 0 0 0 0 0 0 0 0 0 0 0 0 127 0"/>
<feOffset dy="4"/>
<feGaussianBlur stdDeviation="2"/>
<feColorMatrix type="matrix" values="0 0 0 0 0 0 0 0 0 0 0 0 0 0 0 0 0 0 0.25 0"/>
<feBlend mode="normal" in2="BackgroundImageFix" result="effect1_dropShadow"/>
<feBlend mode="normal" in="SourceGraphic" in2="effect1_dropShadow" result="shape"/>
</filter>
</defs>
</svg>
