<svg width="18" height="18" viewBox="0 0 33 31" fill="none" xmlns="http://www.w3.org/2000/svg">
<g clip-path="url(#clip0)">
<path d="M0 14.3555L2.24609 7.42188C7.42186 9.24486 11.1816 10.8236 13.5254 12.1582C12.9069 6.26634 12.5814 2.21361 12.5488 0H19.6289C19.5312 3.22273 19.1569 7.25918 18.5059 12.1094C21.8587 10.4167 25.6998 8.85423 30.0293 7.42188L32.2754 14.3555C28.1412 15.7227 24.0885 16.6342 20.1172 17.0898C22.1028 18.8152 24.9023 21.8913 28.5156 26.3184L22.6562 30.4688C20.7682 27.8972 18.5384 24.3978 15.9668 19.9707C13.5579 24.5606 11.442 28.0599 9.61914 30.4688L3.85742 26.3184C7.63345 21.6635 10.3353 18.5873 11.9629 17.0898C7.76366 16.2761 3.77603 15.3646 0 14.3555Z" fill="white"/>
</g>
<defs>
<clipPath id="clip0">
<rect width="42.2754" height="40.4688" fill="white"/>
</clipPath>
</defs>
</svg>
