<svg width="35" height="35" viewBox="0 0 35 35" fill="none" xmlns="http://www.w3.org/2000/svg">
<path d="M20.5922 22.0248C19.028 22.1737 17.336 20.2578 15.5672 20.2578C13.6751 20.2578 11.8689 22.1609 10.2143 21.991C5.68457 21.5278 2.28954 20.4935 1.37866 19.2373C1.63813 21.1048 2.10773 22.8708 2.73722 24.5071C2.89893 24.6697 3.05973 24.8296 3.22784 24.9968C3.69744 25.5166 4.31688 25.9314 4.87693 26.4403C5.50641 26.8661 6.12585 27.3485 6.83208 27.7194C7.50451 28.1479 8.25642 28.4512 8.98732 28.792C9.74837 29.0588 10.4975 29.3694 11.2778 29.5338C12.0425 29.7604 12.8218 29.8509 13.5701 29.987C14.3265 30.0153 15.0593 30.1515 15.7582 30.1103C16.1081 30.1067 16.4489 30.1049 16.7787 30.1012C17.1067 30.0674 17.4237 30.0318 17.728 29.9998C18.341 29.9514 18.891 29.839 19.3853 29.7458C19.6329 29.7001 19.8631 29.6554 20.0778 29.6161C20.287 29.5558 20.478 29.5 20.6516 29.4489C21.3523 29.2552 21.7534 29.1446 21.7534 29.1446C21.7534 29.1446 21.3742 29.3164 20.7091 29.6179C20.541 29.691 20.3546 29.7714 20.1527 29.8591C19.9426 29.9249 19.7151 29.998 19.4721 30.0747C18.986 30.2346 18.4342 30.4219 17.8084 30.5087C17.4968 30.5653 17.1734 30.6256 16.8381 30.6868C16.4973 30.7152 16.1456 30.7444 15.7838 30.7764C15.0583 30.8723 14.2891 30.802 13.4924 30.7892C12.7067 30.6713 11.8762 30.6274 11.0695 30.3908C10.2454 30.2264 9.45053 29.9148 8.64471 29.638C7.87635 29.2707 7.08972 28.9382 6.38623 28.4777C5.64528 28.0812 5.02037 27.5339 4.37717 27.0661C4.08299 26.7893 3.78515 26.5253 3.50284 26.2594C6.08017 31.5164 10.5131 35 15.5682 35C22.6396 35 28.5133 28.2045 29.7567 19.2373C28.823 20.5255 25.2845 21.578 20.5922 22.0248Z" fill="white"/>
<path d="M20.4615 19.7178C22.2623 19.3734 22.223 18.9687 22.2074 18.8143C22.1636 18.4022 21.578 18.4022 21.2966 18.4022C20.9996 18.4022 20.6461 18.4305 20.2733 18.4835C19.9508 18.5301 18.8773 18.7074 18.5968 19.0911C18.5274 19.1879 18.499 19.3003 18.5164 19.4099C18.5858 19.8311 19.1834 19.8311 19.409 19.8311C19.7087 19.832 20.0833 19.7909 20.4615 19.7178Z" fill="white"/>
<path d="M11.0786 19.8439C11.2787 19.8439 11.8853 19.8439 11.9575 19.4227C11.9767 19.314 11.9484 19.1998 11.8789 19.102C11.6085 18.7238 10.6117 18.5401 10.313 18.4935C9.96947 18.4387 9.64148 18.4104 9.36373 18.4104C9.1134 18.4104 8.52503 18.4104 8.4693 18.8243C8.41722 19.2126 8.96905 19.5195 10.1065 19.7397C10.4573 19.8082 10.7936 19.8439 11.0786 19.8439Z" fill="white"/>
<path d="M33.8653 5.97327C33.8653 5.97327 33.7684 5.75583 33.5282 5.42875C33.4094 5.26247 33.2532 5.07244 33.0595 4.86231C32.8694 4.64212 32.6292 4.43656 32.3432 4.2648C32.06 4.08025 31.7393 3.89661 31.3885 3.72393C31.0394 3.54303 30.642 3.47817 30.2309 3.39137C30.1021 3.37219 29.9705 3.36214 29.838 3.34935C30.1322 3.23606 30.4182 3.12551 30.6804 2.99669C30.9627 2.87609 31.2267 2.75549 31.4634 2.63581C31.7 2.50516 31.9129 2.41836 32.0901 2.31604C32.4455 2.12509 32.6575 1.96977 32.6575 1.96977L32.6648 1.96521C32.6785 1.95516 32.6904 1.94237 32.7004 1.92683C32.747 1.8574 32.7278 1.7633 32.6575 1.71761C32.6575 1.71761 32.4464 1.57692 32.0563 1.41155C31.8617 1.33024 31.6214 1.22791 31.3437 1.16487C31.0659 1.10183 30.7462 1.03057 30.3972 0.989457C30.0491 0.965703 29.6672 0.949258 29.267 0.976666C28.8696 1.02052 28.4457 1.06803 28.03 1.21147C27.6134 1.35125 27.1995 1.54585 26.8039 1.79619C26.3992 2.0182 26.0173 2.30873 25.6244 2.55267C25.5531 2.60566 25.4828 2.65865 25.4115 2.71072C25.7541 3.01861 26.0812 3.34569 26.3992 3.68739C26.5581 3.8628 26.7144 4.04187 26.8688 4.2246C27.2187 4.63756 27.5448 5.07244 27.8536 5.52468C28.1606 5.58133 28.4676 5.64437 28.7618 5.71289C29.119 5.77684 29.4488 5.91206 29.7768 5.98149C30.1021 6.05184 30.4401 6.04454 30.7444 6.08839C31.0477 6.13498 31.3464 6.15782 31.6351 6.16331C31.7786 6.1697 31.922 6.16422 32.06 6.15965C32.1924 6.16787 32.3085 6.1962 32.4327 6.19711C32.6721 6.21356 32.895 6.22178 33.0878 6.21812C33.4715 6.2163 33.7301 6.18523 33.7301 6.18523L33.7483 6.18341C33.763 6.18158 33.7767 6.17792 33.7913 6.17153C33.8653 6.13772 33.8991 6.0491 33.8653 5.97327Z" fill="white"/>
<path d="M26.8423 6.9207C26.1698 6.49221 25.417 6.18889 24.687 5.8481C23.926 5.58133 23.1768 5.27069 22.3957 5.10716C21.6319 4.88058 20.8525 4.79013 20.1043 4.65308C19.3478 4.62476 18.6142 4.48955 17.9152 4.53066C17.5653 4.5334 17.2245 4.53614 16.8947 4.53888C16.5677 4.5736 16.2497 4.60832 15.9455 4.64029C15.3324 4.68872 14.7815 4.802 14.2882 4.89519C14.0406 4.94088 13.8094 4.98473 13.5956 5.02402C13.3873 5.08523 13.1955 5.14096 13.0219 5.19121C12.3211 5.3849 11.92 5.49545 11.92 5.49545C11.92 5.49545 12.2992 5.32368 12.9634 5.0231C13.1315 4.95093 13.3179 4.87053 13.5207 4.78282C13.7309 4.71612 13.9583 4.64303 14.2014 4.56629C14.6874 4.40732 15.2383 4.22003 15.8651 4.13323C16.1766 4.07567 16.501 4.01629 16.8363 3.95508C17.177 3.92584 17.5288 3.8966 17.8906 3.86554C18.6151 3.76961 19.3844 3.83996 20.1819 3.85366C20.9667 3.97061 21.7981 4.01446 22.604 4.25109C23.428 4.41554 24.2229 4.728 25.0287 5.00392C25.5358 5.24694 26.041 5.48814 26.5353 5.74669C26.3644 5.52011 26.2046 5.28348 26.0218 5.06787C25.8674 4.88514 25.7121 4.70607 25.5504 4.53249C25.2343 4.19079 24.9063 3.86463 24.5619 3.55582C22.0932 1.33572 18.9696 0 15.5636 0C7.58765 0 1.12193 7.28066 1.12193 16.2625C1.12193 16.9486 1.17218 17.6201 1.24527 18.2843C2.13423 16.7467 8.19977 15.5572 15.5663 15.5572C22.9329 15.5572 28.9993 16.7467 29.8846 18.2825C29.9577 17.6183 30.008 16.9468 30.008 16.2607C30.008 13.0045 29.1482 9.97951 27.6828 7.43872C27.4124 7.25691 27.1392 7.07601 26.8423 6.9207Z" fill="white"/>
</svg>
